<svg width="10" height="12" viewBox="0 0 10 12" fill="none" xmlns="http://www.w3.org/2000/svg">
<path d="M8.88889 10H1.11111V3.88889H8.88889V10ZM7.22222 0V1.11111H2.77778V0H1.66667V1.11111H1.11111C0.494444 1.11111 0 1.60556 0 2.22222V10C0 10.2947 0.117063 10.5773 0.325437 10.7857C0.533811 10.994 0.816426 11.1111 1.11111 11.1111H8.88889C9.18357 11.1111 9.46619 10.994 9.67456 10.7857C9.88294 10.5773 10 10.2947 10 10V2.22222C10 1.92754 9.88294 1.64492 9.67456 1.43655C9.46619 1.22817 9.18357 1.11111 8.88889 1.11111H8.33333V0H7.22222ZM7.77778 6.11111H5V8.88889H7.77778V6.11111Z" fill="white"/>
</svg>
