<svg width="12" height="12" viewBox="0 0 12 12" fill="none" xmlns="http://www.w3.org/2000/svg">
<path d="M1.2 2.4H0V10.8C0 11.1183 0.126428 11.4235 0.351472 11.6485C0.576515 11.8736 0.88174 12 1.2 12H9.6V10.8H1.2V2.4ZM10.8 0C11.1183 0 11.4235 0.126428 11.6485 0.351472C11.8736 0.576515 12 0.88174 12 1.2V8.4C12 8.71826 11.8736 9.02348 11.6485 9.24853C11.4235 9.47357 11.1183 9.6 10.8 9.6H3.6C3.28174 9.6 2.97652 9.47357 2.75147 9.24853C2.52643 9.02348 2.4 8.71826 2.4 8.4V1.2C2.4 0.88174 2.52643 0.576515 2.75147 0.351472C2.97652 0.126428 3.28174 0 3.6 0H10.8ZM9 3C9 2.52261 8.81036 2.06477 8.47279 1.72721C8.13523 1.38964 7.67739 1.2 7.2 1.2C6.72261 1.2 6.26477 1.38964 5.92721 1.72721C5.58964 2.06477 5.4 2.52261 5.4 3C5.4 3.47739 5.58964 3.93523 5.92721 4.27279C6.26477 4.61036 6.72261 4.8 7.2 4.8C7.67739 4.8 8.13523 4.61036 8.47279 4.27279C8.81036 3.93523 9 3.47739 9 3V3ZM3.6 7.8V8.4H10.8V7.8C10.8 6.6 8.4 5.94 7.2 5.94C6 5.94 3.6 6.6 3.6 7.8Z" fill="white"/>
</svg>
