<svg width="8" height="9" viewBox="0 0 8 9" fill="none" xmlns="http://www.w3.org/2000/svg">
<path d="M2.99805 1.31055C3.28776 1.63932 3.43262 2.08366 3.43262 2.64355C3.43262 3.20345 3.28776 3.64779 2.99805 3.97656C2.71159 4.30534 2.32096 4.46973 1.82617 4.46973C1.33464 4.46973 0.94401 4.30534 0.654297 3.97656C0.364583 3.64779 0.219727 3.20345 0.219727 2.64355C0.219727 2.08366 0.364583 1.63932 0.654297 1.31055C0.94401 0.981771 1.33464 0.817383 1.82617 0.817383C2.31771 0.817383 2.70833 0.981771 2.99805 1.31055ZM1.4502 3.35156C1.54134 3.52083 1.66667 3.60547 1.82617 3.60547C1.98568 3.60547 2.111 3.52083 2.20215 3.35156C2.29329 3.17904 2.33887 2.94141 2.33887 2.63867C2.33887 2.33594 2.29329 2.09831 2.20215 1.92578C2.111 1.75326 1.98568 1.66699 1.82617 1.66699C1.66667 1.66699 1.54134 1.75326 1.4502 1.92578C1.35905 2.09831 1.31348 2.33594 1.31348 2.63867C1.31348 2.94141 1.35905 3.17904 1.4502 3.35156ZM2.09961 8H0.917969L3.65234 4.25488L6.05957 0.954102H7.23633L4.58008 4.59668L2.09961 8ZM7.93457 6.27148C7.93457 6.83464 7.78971 7.2806 7.5 7.60938C7.21029 7.93815 6.81966 8.10254 6.32812 8.10254C5.83659 8.10254 5.44596 7.93815 5.15625 7.60938C4.86654 7.27734 4.72168 6.83138 4.72168 6.27148C4.72168 5.71159 4.86654 5.26725 5.15625 4.93848C5.44596 4.6097 5.83659 4.44531 6.32812 4.44531C6.81966 4.44531 7.21029 4.6097 7.5 4.93848C7.78971 5.26725 7.93457 5.71159 7.93457 6.27148ZM5.95215 6.97949C6.04329 7.14876 6.16862 7.2334 6.32812 7.2334C6.48763 7.2334 6.61296 7.14876 6.7041 6.97949C6.79525 6.80697 6.84082 6.56934 6.84082 6.2666C6.84082 5.96387 6.79525 5.72624 6.7041 5.55371C6.61296 5.38118 6.48763 5.29492 6.32812 5.29492C6.16862 5.29492 6.04329 5.38118 5.95215 5.55371C5.861 5.72624 5.81543 5.96387 5.81543 6.2666C5.81543 6.56934 5.861 6.80697 5.95215 6.97949Z" fill="white"/>
</svg>
