<svg width="9" height="10" viewBox="0 0 9 10" fill="none" xmlns="http://www.w3.org/2000/svg">
<path d="M1.76471 10H2.94118V8.23529H6.47059V7.05882H2.94118V5.88235H5.58824C7.21 5.88235 8.52941 4.56294 8.52941 2.94118C8.52941 1.31941 7.21 0 5.58824 0H2.35294C2.19693 0 2.04731 0.0619747 1.937 0.17229C1.82668 0.282606 1.76471 0.432226 1.76471 0.588235V4.70588H0V5.88235H1.76471V7.05882H0V8.23529H1.76471V10ZM2.94118 1.17647H5.58824C6.56118 1.17647 7.35294 1.96824 7.35294 2.94118C7.35294 3.91412 6.56118 4.70588 5.58824 4.70588H2.94118V1.17647Z" fill="white"/>
</svg>
